<svg xmlns="http://www.w3.org/2000/svg" xmlns:xlink="http://www.w3.org/1999/xlink" width="266.699" height="219.999" version="1.1" viewBox="0 0 2753 2271" xml:space="preserve" style="shape-rendering:geometricPrecision;text-rendering:geometricPrecision;image-rendering:optimizeQuality;fill-rule:evenodd;clip-rule:evenodd"><defs><style type="text/css">.str1{stroke:#e31e24;stroke-width:27.5259}.str2{stroke:#000;stroke-width:7.80325}.str0{stroke:#2b2a29;stroke-width:13.761;stroke-dasharray:27.522046 41.283069}.fil3{fill:none}.fil4{fill:#2b2a29}.fil6{fill:#e31e24}.fil0{fill:#b8ebd6}.fil1{fill:#d6d6d6}.fil2{fill:#ffe8f7}.fil5{fill:#fff}.fnt0,.fnt1{font-weight:400;font-size:137.638px;font-family:&apos;Arial&apos;}.fnt1{font-style:italic;font-size:165.167px}</style></defs><g id="Plan_x0020_2"><metadata id="CorelCorpID_0Corel-Layer"/><polygon points="376 1092 1512 1567 1512 1386 376 911" class="fil0"/><polygon points="376 2114 1512 2114 1512 1567 376 1092" class="fil1"/><rect width="1136" height="475" x="376" y="126" class="fil2"/><line x1="376" x2="376" y1="0" y2="2271" class="fil3 str0"/><line x1="1512" x2="1512" y1="0" y2="2271" class="fil3 str0"/><line x1="249" x2="1640" y1="2114" y2="2114" class="fil3 str1"/><line x1="249" x2="1640" y1="601" y2="601" class="fil3 str1"/><line x1="249" x2="1640" y1="126" y2="126" class="fil3 str1"/><line x1="249" x2="1640" y1="858" y2="1439" class="fil3 str1"/><line x1="249" x2="1640" y1="1038" y2="1620" class="fil3 str1"/><g id="_2320252194224"><rect width="134" height="134" x="1820" y="1793" class="fil0 str2"/><text x="2042" y="1899" class="fil4 fnt0">green roof</text></g><g id="_2320252197072"><rect width="134" height="134" x="1820" y="1991" class="fil1 str2"/><text x="2042" y="2097" class="fil4 fnt0">building</text></g><g id="_2320252197904"><rect width="134" height="134" x="1820" y="1397" class="fil5 str2"/><text x="2042" y="1503" class="fil4 fnt0">empty</text></g><g id="_2320252199312"><rect width="134" height="134" x="1820" y="1595" class="fil2 str2"/><text x="2042" y="1701" class="fil4 fnt0">bridge deck</text></g><text x="-7" y="2173" class="fil6 fnt1">P1</text><text x="-7" y="1098" class="fil6 fnt1">P2</text><text x="-7" y="916" class="fil6 fnt1">P3</text><text x="-7" y="660" class="fil6 fnt1">P4</text><text x="-7" y="185" class="fil6 fnt1">P5</text></g></svg>