<svg xmlns="http://www.w3.org/2000/svg" xmlns:xlink="http://www.w3.org/1999/xlink" width="302.946" height="279.832" version="1.1" viewBox="0 0 3360 3104" xml:space="preserve" style="shape-rendering:geometricPrecision;text-rendering:geometricPrecision;image-rendering:optimizeQuality;fill-rule:evenodd;clip-rule:evenodd"><defs><style type="text/css">.str4{stroke:#2b2a29;stroke-width:14.7848}.str0{stroke:#ff7900;stroke-width:7.3903}.str1{stroke:#000}.str1,.str2,.str3{stroke-width:14.7848;stroke-linecap:round;stroke-linejoin:round}.str3{stroke:#000}.str2,.str3{stroke-dasharray:14.784799 44.354396}.str2{stroke:#ff7900}.fil2{fill:none}.fil1{fill:#d6d6d6}.fil3{fill:#ff7900}.fil0{fill:#fff6b6}.fnt0{font-style:italic;font-weight:400;font-size:354.915px;font-family:&apos;Arial&apos;}</style></defs><g id="Plan_x0020_1"><metadata id="CorelCorpID_0Corel-Layer"/><polygon points="459 4 2686 4 3354 1452 5 1745" class="fil0 str0"/><polygon points="1207 3096 1055 2476 1662 1755 2340 1751" class="fil1 str1"/><polygon points="1207 1538 1055 918 1662 197 2340 192" class="fil2 str2"/><line x1="1207" x2="1207" y1="1640" y2="1538" class="fil2 str3"/><line x1="1207" x2="1207" y1="3096" y2="1640" class="fil2 str4"/><line x1="2340" x2="2340" y1="1541" y2="192" class="fil2 str3"/><line x1="2340" x2="2340" y1="1751" y2="1541" class="fil2 str4"/><line x1="1662" x2="1662" y1="1600" y2="997" class="fil2 str3"/><line x1="1662" x2="1662" y1="1755" y2="1600" class="fil2 str4"/><line x1="1055" x2="1055" y1="1653" y2="918" class="fil2 str3"/><line x1="1055" x2="1055" y1="2476" y2="1653" class="fil2 str4"/><text x="209" y="1615" class="fil3 fnt0">P</text></g></svg>