<svg xmlns="http://www.w3.org/2000/svg" xmlns:xlink="http://www.w3.org/1999/xlink" width="258" height="285" version="1.1" viewBox="0 0 2337 2581" xml:space="preserve" style="shape-rendering:geometricPrecision;text-rendering:geometricPrecision;image-rendering:optimizeQuality;fill-rule:evenodd;clip-rule:evenodd"><defs><style type="text/css">.str0,.str1{stroke-width:12.074}.str1{stroke:#2b2a29}.str0{stroke:#000;stroke-linecap:round;stroke-linejoin:round}.fil2{fill:none}.fil1{fill:#d6d6d6}.fil4{fill:#ff7900}.fil0{fill:#fff}.fil3{fill:#ff7900;fill-rule:nonzero}.fnt0{font-style:italic;font-weight:400;font-size:289.841px;font-family:&apos;Arial&apos;}</style></defs><g id="Plan_x0020_1"><metadata id="CorelCorpID_0Corel-Layer"/><rect width="2337" height="2581" class="fil0"/><polygon points="845 2505 721 1999 1217 1410 1770 1406" class="fil1 str0"/><polygon points="845 1232 721 726 1217 137 1770 133" class="fil1 str0"/><line x1="845" x2="845" y1="2505" y2="1232" class="fil2 str1"/><line x1="1770" x2="1770" y1="1406" y2="133" class="fil2 str1"/><line x1="1217" x2="1217" y1="1410" y2="791" class="fil2 str1"/><line x1="721" x2="721" y1="1999" y2="726" class="fil2 str1"/><g><path d="M1148 1100l0 756 -36 0 0 -756 36 0zm-3 -37l-30 19 30 0 -93 143 -30 -20 93 -142 30 0zm0 0l-30 0 15 -24 15 24zm78 152l-16 10 -92 -143 30 -19 93 142 -15 10z" class="fil3"/></g><text x="902" y="1565" class="fil4 fnt0">d</text></g></svg>